<mxfile host="app.diagrams.net" modified="2021-07-01T01:56:21.498Z" agent="5.0 (Windows NT 10.0; WOW64) AppleWebKit/537.36 (KHTML, like Gecko) Chrome/91.0.4472.114 Safari/537.36" etag="H0Zm5e6zG8sUj8rnOIwh" version="14.7.0" type="github">
  <diagram id="R2lEEEUBdFMjLlhIrx00" name="Page-1">
    <mxGraphModel dx="1363" dy="752" grid="1" gridSize="10" guides="1" tooltips="1" connect="1" arrows="1" fold="1" page="1" pageScale="1" pageWidth="850" pageHeight="1100" math="0" shadow="0" extFonts="Permanent Marker^https://fonts.googleapis.com/css?family=Permanent+Marker">
      <root>
        <mxCell id="0" />
        <mxCell id="1" parent="0" />
        <mxCell id="C-vyLk0tnHw3VtMMgP7b-2" value="Cluster" style="shape=table;startSize=30;container=1;collapsible=1;childLayout=tableLayout;fixedRows=1;rowLines=0;fontStyle=1;align=center;resizeLast=1;fontFamily=Times New Roman;fillColor=#B2C9AB;strokeColor=#788AA3;fontColor=#46495D;" parent="1" vertex="1">
          <mxGeometry x="608" y="290" width="270" height="150" as="geometry" />
        </mxCell>
        <mxCell id="C-vyLk0tnHw3VtMMgP7b-3" value="" style="shape=partialRectangle;collapsible=0;dropTarget=0;pointerEvents=0;fillColor=none;points=[[0,0.5],[1,0.5]];portConstraint=eastwest;top=0;left=0;right=0;bottom=1;fontFamily=Times New Roman;strokeColor=#788AA3;fontColor=#46495D;" parent="C-vyLk0tnHw3VtMMgP7b-2" vertex="1">
          <mxGeometry y="30" width="270" height="30" as="geometry" />
        </mxCell>
        <mxCell id="C-vyLk0tnHw3VtMMgP7b-4" value="PK" style="shape=partialRectangle;overflow=hidden;connectable=0;fillColor=none;top=0;left=0;bottom=0;right=0;fontStyle=1;fontFamily=Times New Roman;strokeColor=#788AA3;fontColor=#46495D;" parent="C-vyLk0tnHw3VtMMgP7b-3" vertex="1">
          <mxGeometry width="30" height="30" as="geometry" />
        </mxCell>
        <mxCell id="C-vyLk0tnHw3VtMMgP7b-5" value="Id int NOT NULL" style="shape=partialRectangle;overflow=hidden;connectable=0;fillColor=none;top=0;left=0;bottom=0;right=0;align=left;spacingLeft=6;fontStyle=5;fontFamily=Times New Roman;strokeColor=#788AA3;fontColor=#46495D;" parent="C-vyLk0tnHw3VtMMgP7b-3" vertex="1">
          <mxGeometry x="30" width="240" height="30" as="geometry" />
        </mxCell>
        <mxCell id="C-vyLk0tnHw3VtMMgP7b-6" value="" style="shape=partialRectangle;collapsible=0;dropTarget=0;pointerEvents=0;fillColor=none;points=[[0,0.5],[1,0.5]];portConstraint=eastwest;top=0;left=0;right=0;bottom=0;fontFamily=Times New Roman;strokeColor=#788AA3;fontColor=#46495D;" parent="C-vyLk0tnHw3VtMMgP7b-2" vertex="1">
          <mxGeometry y="60" width="270" height="30" as="geometry" />
        </mxCell>
        <mxCell id="C-vyLk0tnHw3VtMMgP7b-7" value="" style="shape=partialRectangle;overflow=hidden;connectable=0;fillColor=none;top=0;left=0;bottom=0;right=0;fontFamily=Times New Roman;strokeColor=#788AA3;fontColor=#46495D;" parent="C-vyLk0tnHw3VtMMgP7b-6" vertex="1">
          <mxGeometry width="30" height="30" as="geometry" />
        </mxCell>
        <mxCell id="C-vyLk0tnHw3VtMMgP7b-8" value="AppId varchar(64) NOT NULL" style="shape=partialRectangle;overflow=hidden;connectable=0;fillColor=none;top=0;left=0;bottom=0;right=0;align=left;spacingLeft=6;fontFamily=Times New Roman;strokeColor=#788AA3;fontColor=#46495D;" parent="C-vyLk0tnHw3VtMMgP7b-6" vertex="1">
          <mxGeometry x="30" width="240" height="30" as="geometry" />
        </mxCell>
        <mxCell id="C-vyLk0tnHw3VtMMgP7b-9" value="" style="shape=partialRectangle;collapsible=0;dropTarget=0;pointerEvents=0;fillColor=none;points=[[0,0.5],[1,0.5]];portConstraint=eastwest;top=0;left=0;right=0;bottom=0;fontFamily=Times New Roman;strokeColor=#788AA3;fontColor=#46495D;" parent="C-vyLk0tnHw3VtMMgP7b-2" vertex="1">
          <mxGeometry y="90" width="270" height="30" as="geometry" />
        </mxCell>
        <mxCell id="C-vyLk0tnHw3VtMMgP7b-10" value="" style="shape=partialRectangle;overflow=hidden;connectable=0;fillColor=none;top=0;left=0;bottom=0;right=0;fontFamily=Times New Roman;strokeColor=#788AA3;fontColor=#46495D;" parent="C-vyLk0tnHw3VtMMgP7b-9" vertex="1">
          <mxGeometry width="30" height="30" as="geometry" />
        </mxCell>
        <mxCell id="C-vyLk0tnHw3VtMMgP7b-11" value="Name varchar(32) NOT NULL" style="shape=partialRectangle;overflow=hidden;connectable=0;fillColor=none;top=0;left=0;bottom=0;right=0;align=left;spacingLeft=6;fontFamily=Times New Roman;strokeColor=#788AA3;fontColor=#46495D;" parent="C-vyLk0tnHw3VtMMgP7b-9" vertex="1">
          <mxGeometry x="30" width="240" height="30" as="geometry" />
        </mxCell>
        <mxCell id="C-vyLk0tnHw3VtMMgP7b-13" value="Namespace" style="shape=table;startSize=30;container=1;collapsible=1;childLayout=tableLayout;fixedRows=1;rowLines=0;fontStyle=1;align=center;resizeLast=1;fontFamily=Times New Roman;fillColor=#B2C9AB;strokeColor=#788AA3;fontColor=#46495D;" parent="1" vertex="1">
          <mxGeometry x="338" y="530" width="250" height="150" as="geometry" />
        </mxCell>
        <mxCell id="C-vyLk0tnHw3VtMMgP7b-14" value="" style="shape=partialRectangle;collapsible=0;dropTarget=0;pointerEvents=0;fillColor=none;points=[[0,0.5],[1,0.5]];portConstraint=eastwest;top=0;left=0;right=0;bottom=1;fontFamily=Times New Roman;strokeColor=#788AA3;fontColor=#46495D;" parent="C-vyLk0tnHw3VtMMgP7b-13" vertex="1">
          <mxGeometry y="30" width="250" height="30" as="geometry" />
        </mxCell>
        <mxCell id="C-vyLk0tnHw3VtMMgP7b-15" value="PK" style="shape=partialRectangle;overflow=hidden;connectable=0;fillColor=none;top=0;left=0;bottom=0;right=0;fontStyle=1;fontFamily=Times New Roman;strokeColor=#788AA3;fontColor=#46495D;" parent="C-vyLk0tnHw3VtMMgP7b-14" vertex="1">
          <mxGeometry width="30" height="30" as="geometry" />
        </mxCell>
        <mxCell id="C-vyLk0tnHw3VtMMgP7b-16" value="IdÂ int NOT NULL " style="shape=partialRectangle;overflow=hidden;connectable=0;fillColor=none;top=0;left=0;bottom=0;right=0;align=left;spacingLeft=6;fontStyle=5;fontFamily=Times New Roman;strokeColor=#788AA3;fontColor=#46495D;" parent="C-vyLk0tnHw3VtMMgP7b-14" vertex="1">
          <mxGeometry x="30" width="220" height="30" as="geometry" />
        </mxCell>
        <mxCell id="C-vyLk0tnHw3VtMMgP7b-17" value="" style="shape=partialRectangle;collapsible=0;dropTarget=0;pointerEvents=0;fillColor=none;points=[[0,0.5],[1,0.5]];portConstraint=eastwest;top=0;left=0;right=0;bottom=0;fontFamily=Times New Roman;strokeColor=#788AA3;fontColor=#46495D;" parent="C-vyLk0tnHw3VtMMgP7b-13" vertex="1">
          <mxGeometry y="60" width="250" height="30" as="geometry" />
        </mxCell>
        <mxCell id="C-vyLk0tnHw3VtMMgP7b-18" value="" style="shape=partialRectangle;overflow=hidden;connectable=0;fillColor=none;top=0;left=0;bottom=0;right=0;fontFamily=Times New Roman;strokeColor=#788AA3;fontColor=#46495D;" parent="C-vyLk0tnHw3VtMMgP7b-17" vertex="1">
          <mxGeometry width="30" height="30" as="geometry" />
        </mxCell>
        <mxCell id="C-vyLk0tnHw3VtMMgP7b-19" value="AppId varchar(64) NOT NULL" style="shape=partialRectangle;overflow=hidden;connectable=0;fillColor=none;top=0;left=0;bottom=0;right=0;align=left;spacingLeft=6;fontFamily=Times New Roman;strokeColor=#788AA3;fontColor=#46495D;" parent="C-vyLk0tnHw3VtMMgP7b-17" vertex="1">
          <mxGeometry x="30" width="220" height="30" as="geometry" />
        </mxCell>
        <mxCell id="C-vyLk0tnHw3VtMMgP7b-20" value="" style="shape=partialRectangle;collapsible=0;dropTarget=0;pointerEvents=0;fillColor=none;points=[[0,0.5],[1,0.5]];portConstraint=eastwest;top=0;left=0;right=0;bottom=0;fontFamily=Times New Roman;strokeColor=#788AA3;fontColor=#46495D;" parent="C-vyLk0tnHw3VtMMgP7b-13" vertex="1">
          <mxGeometry y="90" width="250" height="30" as="geometry" />
        </mxCell>
        <mxCell id="C-vyLk0tnHw3VtMMgP7b-21" value="" style="shape=partialRectangle;overflow=hidden;connectable=0;fillColor=none;top=0;left=0;bottom=0;right=0;fontFamily=Times New Roman;strokeColor=#788AA3;fontColor=#46495D;" parent="C-vyLk0tnHw3VtMMgP7b-20" vertex="1">
          <mxGeometry width="30" height="30" as="geometry" />
        </mxCell>
        <mxCell id="C-vyLk0tnHw3VtMMgP7b-22" value="ClusterName varchar(32) NOT NULL" style="shape=partialRectangle;overflow=hidden;connectable=0;fillColor=none;top=0;left=0;bottom=0;right=0;align=left;spacingLeft=6;fontFamily=Times New Roman;strokeColor=#788AA3;fontColor=#46495D;" parent="C-vyLk0tnHw3VtMMgP7b-20" vertex="1">
          <mxGeometry x="30" width="220" height="30" as="geometry" />
        </mxCell>
        <mxCell id="C-vyLk0tnHw3VtMMgP7b-23" value="App" style="shape=table;startSize=20;container=1;collapsible=1;childLayout=tableLayout;fixedRows=1;rowLines=0;fontStyle=1;align=center;resizeLast=1;fontFamily=Times New Roman;fillColor=#B2C9AB;strokeColor=#788AA3;fontColor=#46495D;" parent="1" vertex="1">
          <mxGeometry x="348" y="90" width="250" height="110" as="geometry" />
        </mxCell>
        <mxCell id="C-vyLk0tnHw3VtMMgP7b-24" value="" style="shape=partialRectangle;collapsible=0;dropTarget=0;pointerEvents=0;fillColor=none;points=[[0,0.5],[1,0.5]];portConstraint=eastwest;top=0;left=0;right=0;bottom=1;fontFamily=Times New Roman;strokeColor=#788AA3;fontColor=#46495D;" parent="C-vyLk0tnHw3VtMMgP7b-23" vertex="1">
          <mxGeometry y="20" width="250" height="30" as="geometry" />
        </mxCell>
        <mxCell id="C-vyLk0tnHw3VtMMgP7b-25" value="PK" style="shape=partialRectangle;overflow=hidden;connectable=0;fillColor=none;top=0;left=0;bottom=0;right=0;fontStyle=1;fontFamily=Times New Roman;strokeColor=#788AA3;fontColor=#46495D;" parent="C-vyLk0tnHw3VtMMgP7b-24" vertex="1">
          <mxGeometry width="30" height="30" as="geometry" />
        </mxCell>
        <mxCell id="C-vyLk0tnHw3VtMMgP7b-26" value="Id int NOT NULL" style="shape=partialRectangle;overflow=hidden;connectable=0;fillColor=none;top=0;left=0;bottom=0;right=0;align=left;spacingLeft=6;fontStyle=5;fontFamily=Times New Roman;strokeColor=#788AA3;fontColor=#46495D;" parent="C-vyLk0tnHw3VtMMgP7b-24" vertex="1">
          <mxGeometry x="30" width="220" height="30" as="geometry" />
        </mxCell>
        <mxCell id="C-vyLk0tnHw3VtMMgP7b-27" value="" style="shape=partialRectangle;collapsible=0;dropTarget=0;pointerEvents=0;fillColor=none;points=[[0,0.5],[1,0.5]];portConstraint=eastwest;top=0;left=0;right=0;bottom=0;fontFamily=Times New Roman;strokeColor=#788AA3;fontColor=#46495D;" parent="C-vyLk0tnHw3VtMMgP7b-23" vertex="1">
          <mxGeometry y="50" width="250" height="30" as="geometry" />
        </mxCell>
        <mxCell id="C-vyLk0tnHw3VtMMgP7b-28" value="" style="shape=partialRectangle;overflow=hidden;connectable=0;fillColor=none;top=0;left=0;bottom=0;right=0;fontFamily=Times New Roman;strokeColor=#788AA3;fontColor=#46495D;" parent="C-vyLk0tnHw3VtMMgP7b-27" vertex="1">
          <mxGeometry width="30" height="30" as="geometry" />
        </mxCell>
        <mxCell id="C-vyLk0tnHw3VtMMgP7b-29" value="AppId varchar(64) NOT NULL" style="shape=partialRectangle;overflow=hidden;connectable=0;fillColor=none;top=0;left=0;bottom=0;right=0;align=left;spacingLeft=6;fontFamily=Times New Roman;strokeColor=#788AA3;fontColor=#46495D;" parent="C-vyLk0tnHw3VtMMgP7b-27" vertex="1">
          <mxGeometry x="30" width="220" height="30" as="geometry" />
        </mxCell>
        <mxCell id="z7PGiLr09u5QZkVADLrg-1" value="NamespaceName varchar(32) NOT NULL" style="shape=partialRectangle;overflow=hidden;connectable=0;fillColor=none;top=0;left=0;bottom=0;right=0;align=left;spacingLeft=6;fontFamily=Times New Roman;strokeColor=#788AA3;fontColor=#46495D;" vertex="1" parent="1">
          <mxGeometry x="368" y="650" width="220" height="30" as="geometry" />
        </mxCell>
        <mxCell id="z7PGiLr09u5QZkVADLrg-3" value="Item" style="shape=table;startSize=30;container=1;collapsible=1;childLayout=tableLayout;fixedRows=1;rowLines=0;fontStyle=1;align=center;resizeLast=1;fontFamily=Times New Roman;fillColor=#B2C9AB;strokeColor=#788AA3;fontColor=#46495D;" vertex="1" parent="1">
          <mxGeometry x="45" y="810" width="250" height="150.0000000000001" as="geometry" />
        </mxCell>
        <mxCell id="z7PGiLr09u5QZkVADLrg-4" value="" style="shape=partialRectangle;collapsible=0;dropTarget=0;pointerEvents=0;fillColor=none;points=[[0,0.5],[1,0.5]];portConstraint=eastwest;top=0;left=0;right=0;bottom=1;fontFamily=Times New Roman;strokeColor=#788AA3;fontColor=#46495D;" vertex="1" parent="z7PGiLr09u5QZkVADLrg-3">
          <mxGeometry y="30" width="250" height="30" as="geometry" />
        </mxCell>
        <mxCell id="z7PGiLr09u5QZkVADLrg-5" value="PK" style="shape=partialRectangle;overflow=hidden;connectable=0;fillColor=none;top=0;left=0;bottom=0;right=0;fontStyle=1;fontFamily=Times New Roman;strokeColor=#788AA3;fontColor=#46495D;" vertex="1" parent="z7PGiLr09u5QZkVADLrg-4">
          <mxGeometry width="30" height="30" as="geometry" />
        </mxCell>
        <mxCell id="z7PGiLr09u5QZkVADLrg-6" value="IdÂ int NOT NULL " style="shape=partialRectangle;overflow=hidden;connectable=0;fillColor=none;top=0;left=0;bottom=0;right=0;align=left;spacingLeft=6;fontStyle=5;fontFamily=Times New Roman;strokeColor=#788AA3;fontColor=#46495D;" vertex="1" parent="z7PGiLr09u5QZkVADLrg-4">
          <mxGeometry x="30" width="220" height="30" as="geometry" />
        </mxCell>
        <mxCell id="z7PGiLr09u5QZkVADLrg-7" value="" style="shape=partialRectangle;collapsible=0;dropTarget=0;pointerEvents=0;fillColor=none;points=[[0,0.5],[1,0.5]];portConstraint=eastwest;top=0;left=0;right=0;bottom=0;fontFamily=Times New Roman;strokeColor=#788AA3;fontColor=#46495D;" vertex="1" parent="z7PGiLr09u5QZkVADLrg-3">
          <mxGeometry y="60" width="250" height="30" as="geometry" />
        </mxCell>
        <mxCell id="z7PGiLr09u5QZkVADLrg-8" value="" style="shape=partialRectangle;overflow=hidden;connectable=0;fillColor=none;top=0;left=0;bottom=0;right=0;fontFamily=Times New Roman;strokeColor=#788AA3;fontColor=#46495D;" vertex="1" parent="z7PGiLr09u5QZkVADLrg-7">
          <mxGeometry width="30" height="30" as="geometry" />
        </mxCell>
        <mxCell id="z7PGiLr09u5QZkVADLrg-9" value="NamespaceId int NOT NULL" style="shape=partialRectangle;overflow=hidden;connectable=0;fillColor=none;top=0;left=0;bottom=0;right=0;align=left;spacingLeft=6;fontFamily=Times New Roman;strokeColor=#788AA3;fontColor=#46495D;" vertex="1" parent="z7PGiLr09u5QZkVADLrg-7">
          <mxGeometry x="30" width="220" height="30" as="geometry" />
        </mxCell>
        <mxCell id="z7PGiLr09u5QZkVADLrg-10" value="" style="shape=partialRectangle;collapsible=0;dropTarget=0;pointerEvents=0;fillColor=none;points=[[0,0.5],[1,0.5]];portConstraint=eastwest;top=0;left=0;right=0;bottom=0;fontFamily=Times New Roman;strokeColor=#788AA3;fontColor=#46495D;" vertex="1" parent="z7PGiLr09u5QZkVADLrg-3">
          <mxGeometry y="90" width="250" height="30" as="geometry" />
        </mxCell>
        <mxCell id="z7PGiLr09u5QZkVADLrg-11" value="" style="shape=partialRectangle;overflow=hidden;connectable=0;fillColor=none;top=0;left=0;bottom=0;right=0;fontFamily=Times New Roman;strokeColor=#788AA3;fontColor=#46495D;" vertex="1" parent="z7PGiLr09u5QZkVADLrg-10">
          <mxGeometry width="30" height="30" as="geometry" />
        </mxCell>
        <mxCell id="z7PGiLr09u5QZkVADLrg-12" value="Key varchar(128) NOT NULL" style="shape=partialRectangle;overflow=hidden;connectable=0;fillColor=none;top=0;left=0;bottom=0;right=0;align=left;spacingLeft=6;fontFamily=Times New Roman;strokeColor=#788AA3;fontColor=#46495D;" vertex="1" parent="z7PGiLr09u5QZkVADLrg-10">
          <mxGeometry x="30" width="220" height="30" as="geometry" />
        </mxCell>
        <mxCell id="z7PGiLr09u5QZkVADLrg-17" value="" style="shape=partialRectangle;collapsible=0;dropTarget=0;pointerEvents=0;fillColor=none;points=[[0,0.5],[1,0.5]];portConstraint=eastwest;top=0;left=0;right=0;bottom=0;fontFamily=Times New Roman;strokeColor=#788AA3;fontColor=#46495D;" vertex="1" parent="1">
          <mxGeometry x="45" y="930" width="250" height="30" as="geometry" />
        </mxCell>
        <mxCell id="z7PGiLr09u5QZkVADLrg-18" value="" style="shape=partialRectangle;overflow=hidden;connectable=0;fillColor=none;top=0;left=0;bottom=0;right=0;fontFamily=Times New Roman;strokeColor=#788AA3;fontColor=#46495D;" vertex="1" parent="z7PGiLr09u5QZkVADLrg-17">
          <mxGeometry width="30" height="30" as="geometry" />
        </mxCell>
        <mxCell id="z7PGiLr09u5QZkVADLrg-19" value="Value longtextÂ  NULL" style="shape=partialRectangle;overflow=hidden;connectable=0;fillColor=none;top=0;left=0;bottom=0;right=0;align=left;spacingLeft=6;fontFamily=Times New Roman;strokeColor=#788AA3;fontColor=#46495D;" vertex="1" parent="z7PGiLr09u5QZkVADLrg-17">
          <mxGeometry x="30" width="220" height="30" as="geometry" />
        </mxCell>
        <mxCell id="z7PGiLr09u5QZkVADLrg-20" value="AppNamespace" style="shape=table;startSize=30;container=1;collapsible=1;childLayout=tableLayout;fixedRows=1;rowLines=0;fontStyle=1;align=center;resizeLast=1;fontFamily=Times New Roman;fillColor=#B2C9AB;strokeColor=#788AA3;fontColor=#46495D;" vertex="1" parent="1">
          <mxGeometry x="68" y="290" width="250" height="150" as="geometry" />
        </mxCell>
        <mxCell id="z7PGiLr09u5QZkVADLrg-21" value="" style="shape=partialRectangle;collapsible=0;dropTarget=0;pointerEvents=0;fillColor=none;points=[[0,0.5],[1,0.5]];portConstraint=eastwest;top=0;left=0;right=0;bottom=1;fontFamily=Times New Roman;strokeColor=#788AA3;fontColor=#46495D;" vertex="1" parent="z7PGiLr09u5QZkVADLrg-20">
          <mxGeometry y="30" width="250" height="30" as="geometry" />
        </mxCell>
        <mxCell id="z7PGiLr09u5QZkVADLrg-22" value="PK" style="shape=partialRectangle;overflow=hidden;connectable=0;fillColor=none;top=0;left=0;bottom=0;right=0;fontStyle=1;fontFamily=Times New Roman;strokeColor=#788AA3;fontColor=#46495D;" vertex="1" parent="z7PGiLr09u5QZkVADLrg-21">
          <mxGeometry width="30" height="30" as="geometry" />
        </mxCell>
        <mxCell id="z7PGiLr09u5QZkVADLrg-23" value="IdÂ int NOT NULL " style="shape=partialRectangle;overflow=hidden;connectable=0;fillColor=none;top=0;left=0;bottom=0;right=0;align=left;spacingLeft=6;fontStyle=5;fontFamily=Times New Roman;strokeColor=#788AA3;fontColor=#46495D;" vertex="1" parent="z7PGiLr09u5QZkVADLrg-21">
          <mxGeometry x="30" width="220" height="30" as="geometry" />
        </mxCell>
        <mxCell id="z7PGiLr09u5QZkVADLrg-24" value="" style="shape=partialRectangle;collapsible=0;dropTarget=0;pointerEvents=0;fillColor=none;points=[[0,0.5],[1,0.5]];portConstraint=eastwest;top=0;left=0;right=0;bottom=0;fontFamily=Times New Roman;strokeColor=#788AA3;fontColor=#46495D;" vertex="1" parent="z7PGiLr09u5QZkVADLrg-20">
          <mxGeometry y="60" width="250" height="30" as="geometry" />
        </mxCell>
        <mxCell id="z7PGiLr09u5QZkVADLrg-25" value="" style="shape=partialRectangle;overflow=hidden;connectable=0;fillColor=none;top=0;left=0;bottom=0;right=0;fontFamily=Times New Roman;strokeColor=#788AA3;fontColor=#46495D;" vertex="1" parent="z7PGiLr09u5QZkVADLrg-24">
          <mxGeometry width="30" height="30" as="geometry" />
        </mxCell>
        <mxCell id="z7PGiLr09u5QZkVADLrg-26" value="AppId varchar(64) NOT NULL" style="shape=partialRectangle;overflow=hidden;connectable=0;fillColor=none;top=0;left=0;bottom=0;right=0;align=left;spacingLeft=6;fontFamily=Times New Roman;strokeColor=#788AA3;fontColor=#46495D;" vertex="1" parent="z7PGiLr09u5QZkVADLrg-24">
          <mxGeometry x="30" width="220" height="30" as="geometry" />
        </mxCell>
        <mxCell id="z7PGiLr09u5QZkVADLrg-27" value="" style="shape=partialRectangle;collapsible=0;dropTarget=0;pointerEvents=0;fillColor=none;points=[[0,0.5],[1,0.5]];portConstraint=eastwest;top=0;left=0;right=0;bottom=0;fontFamily=Times New Roman;strokeColor=#788AA3;fontColor=#46495D;" vertex="1" parent="z7PGiLr09u5QZkVADLrg-20">
          <mxGeometry y="90" width="250" height="30" as="geometry" />
        </mxCell>
        <mxCell id="z7PGiLr09u5QZkVADLrg-28" value="" style="shape=partialRectangle;overflow=hidden;connectable=0;fillColor=none;top=0;left=0;bottom=0;right=0;fontFamily=Times New Roman;strokeColor=#788AA3;fontColor=#46495D;" vertex="1" parent="z7PGiLr09u5QZkVADLrg-27">
          <mxGeometry width="30" height="30" as="geometry" />
        </mxCell>
        <mxCell id="z7PGiLr09u5QZkVADLrg-29" value="Name varchar(32) NOT NULL" style="shape=partialRectangle;overflow=hidden;connectable=0;fillColor=none;top=0;left=0;bottom=0;right=0;align=left;spacingLeft=6;fontFamily=Times New Roman;strokeColor=#788AA3;fontColor=#46495D;" vertex="1" parent="z7PGiLr09u5QZkVADLrg-27">
          <mxGeometry x="30" width="220" height="30" as="geometry" />
        </mxCell>
        <mxCell id="z7PGiLr09u5QZkVADLrg-30" value="IsPublic bit NOT NULL" style="shape=partialRectangle;overflow=hidden;connectable=0;fillColor=none;top=0;left=0;bottom=0;right=0;align=left;spacingLeft=6;fontFamily=Times New Roman;strokeColor=#788AA3;fontColor=#46495D;" vertex="1" parent="1">
          <mxGeometry x="98" y="410" width="220" height="30" as="geometry" />
        </mxCell>
        <mxCell id="z7PGiLr09u5QZkVADLrg-35" value="" style="edgeStyle=elbowEdgeStyle;elbow=vertical;endArrow=none;html=1;fontFamily=Times New Roman;startArrow=ERmany;startFill=0;endFill=0;strokeColor=#788AA3;fontColor=#46495D;" edge="1" parent="1">
          <mxGeometry width="50" height="50" relative="1" as="geometry">
            <mxPoint x="458" y="530" as="sourcePoint" />
            <mxPoint x="778" y="440" as="targetPoint" />
            <Array as="points">
              <mxPoint x="618" y="480" />
            </Array>
          </mxGeometry>
        </mxCell>
        <mxCell id="z7PGiLr09u5QZkVADLrg-38" value="" style="edgeStyle=elbowEdgeStyle;elbow=vertical;endArrow=none;html=1;fontFamily=Times New Roman;startArrow=ERmany;startFill=0;endFill=0;exitX=0.5;exitY=0;exitDx=0;exitDy=0;strokeColor=#788AA3;fontColor=#46495D;" edge="1" parent="1" source="z7PGiLr09u5QZkVADLrg-3">
          <mxGeometry width="50" height="50" relative="1" as="geometry">
            <mxPoint x="128" y="780" as="sourcePoint" />
            <mxPoint x="448" y="680" as="targetPoint" />
            <Array as="points">
              <mxPoint x="318" y="740" />
            </Array>
          </mxGeometry>
        </mxCell>
        <mxCell id="z7PGiLr09u5QZkVADLrg-40" value="" style="edgeStyle=elbowEdgeStyle;elbow=vertical;endArrow=none;html=1;fontFamily=Times New Roman;endFill=0;startArrow=ERmany;startFill=0;strokeColor=#788AA3;fontColor=#46495D;" edge="1" parent="1">
          <mxGeometry width="50" height="50" relative="1" as="geometry">
            <mxPoint x="178" y="290" as="sourcePoint" />
            <mxPoint x="468" y="200" as="targetPoint" />
            <Array as="points">
              <mxPoint x="178" y="240" />
            </Array>
          </mxGeometry>
        </mxCell>
        <mxCell id="z7PGiLr09u5QZkVADLrg-42" value="" style="edgeStyle=elbowEdgeStyle;elbow=vertical;endArrow=none;html=1;fontColor=#46495D;strokeColor=#788AA3;fillColor=#B2C9AB;exitX=0.556;exitY=-0.011;exitDx=0;exitDy=0;exitPerimeter=0;endFill=0;startArrow=ERmany;startFill=0;" edge="1" parent="1" source="C-vyLk0tnHw3VtMMgP7b-2">
          <mxGeometry width="50" height="50" relative="1" as="geometry">
            <mxPoint x="578" y="260" as="sourcePoint" />
            <mxPoint x="468" y="200" as="targetPoint" />
            <Array as="points">
              <mxPoint x="618" y="240" />
              <mxPoint x="618" y="240" />
            </Array>
          </mxGeometry>
        </mxCell>
        <mxCell id="z7PGiLr09u5QZkVADLrg-43" value="ParentClusterId int NOT NULL DEFAULT 0" style="shape=partialRectangle;overflow=hidden;connectable=0;fillColor=none;top=0;left=0;bottom=0;right=0;align=left;spacingLeft=6;fontFamily=Times New Roman;strokeColor=#788AA3;fontColor=#46495D;" vertex="1" parent="1">
          <mxGeometry x="638" y="410" width="230" height="30" as="geometry" />
        </mxCell>
        <mxCell id="z7PGiLr09u5QZkVADLrg-44" value="" style="edgeStyle=elbowEdgeStyle;elbow=vertical;endArrow=none;html=1;fontColor=#46495D;strokeColor=#788AA3;fillColor=#B2C9AB;endFill=0;startArrow=ERmany;startFill=0;" edge="1" parent="1">
          <mxGeometry width="50" height="50" relative="1" as="geometry">
            <mxPoint x="458" y="528" as="sourcePoint" />
            <mxPoint x="173" y="439.9999999999999" as="targetPoint" />
            <Array as="points">
              <mxPoint x="318" y="480" />
              <mxPoint x="323" y="480" />
            </Array>
          </mxGeometry>
        </mxCell>
        <mxCell id="z7PGiLr09u5QZkVADLrg-45" value="Name varchar(32) NOT NULL" style="shape=partialRectangle;overflow=hidden;connectable=0;fillColor=none;top=0;left=0;bottom=0;right=0;align=left;spacingLeft=6;fontFamily=Times New Roman;strokeColor=#788AA3;fontColor=#46495D;" vertex="1" parent="1">
          <mxGeometry x="378" y="170" width="220" height="30" as="geometry" />
        </mxCell>
        <mxCell id="z7PGiLr09u5QZkVADLrg-46" value="Release" style="shape=table;startSize=30;container=1;collapsible=1;childLayout=tableLayout;fixedRows=1;rowLines=0;fontStyle=1;align=center;resizeLast=1;fontFamily=Times New Roman;fillColor=#B2C9AB;strokeColor=#788AA3;fontColor=#46495D;" vertex="1" parent="1">
          <mxGeometry x="344" y="810" width="250" height="210" as="geometry" />
        </mxCell>
        <mxCell id="z7PGiLr09u5QZkVADLrg-47" value="" style="shape=partialRectangle;collapsible=0;dropTarget=0;pointerEvents=0;fillColor=none;points=[[0,0.5],[1,0.5]];portConstraint=eastwest;top=0;left=0;right=0;bottom=1;fontFamily=Times New Roman;strokeColor=#788AA3;fontColor=#46495D;" vertex="1" parent="z7PGiLr09u5QZkVADLrg-46">
          <mxGeometry y="30" width="250" height="30" as="geometry" />
        </mxCell>
        <mxCell id="z7PGiLr09u5QZkVADLrg-48" value="PK" style="shape=partialRectangle;overflow=hidden;connectable=0;fillColor=none;top=0;left=0;bottom=0;right=0;fontStyle=1;fontFamily=Times New Roman;strokeColor=#788AA3;fontColor=#46495D;" vertex="1" parent="z7PGiLr09u5QZkVADLrg-47">
          <mxGeometry width="30" height="30" as="geometry" />
        </mxCell>
        <mxCell id="z7PGiLr09u5QZkVADLrg-49" value="IdÂ int NOT NULL " style="shape=partialRectangle;overflow=hidden;connectable=0;fillColor=none;top=0;left=0;bottom=0;right=0;align=left;spacingLeft=6;fontStyle=5;fontFamily=Times New Roman;strokeColor=#788AA3;fontColor=#46495D;" vertex="1" parent="z7PGiLr09u5QZkVADLrg-47">
          <mxGeometry x="30" width="220" height="30" as="geometry" />
        </mxCell>
        <mxCell id="z7PGiLr09u5QZkVADLrg-50" value="" style="shape=partialRectangle;collapsible=0;dropTarget=0;pointerEvents=0;fillColor=none;points=[[0,0.5],[1,0.5]];portConstraint=eastwest;top=0;left=0;right=0;bottom=0;fontFamily=Times New Roman;strokeColor=#788AA3;fontColor=#46495D;" vertex="1" parent="z7PGiLr09u5QZkVADLrg-46">
          <mxGeometry y="60" width="250" height="30" as="geometry" />
        </mxCell>
        <mxCell id="z7PGiLr09u5QZkVADLrg-51" value="" style="shape=partialRectangle;overflow=hidden;connectable=0;fillColor=none;top=0;left=0;bottom=0;right=0;fontFamily=Times New Roman;strokeColor=#788AA3;fontColor=#46495D;" vertex="1" parent="z7PGiLr09u5QZkVADLrg-50">
          <mxGeometry width="30" height="30" as="geometry" />
        </mxCell>
        <mxCell id="z7PGiLr09u5QZkVADLrg-52" value="ReleaseKey varchar(64) NOT NULL" style="shape=partialRectangle;overflow=hidden;connectable=0;fillColor=none;top=0;left=0;bottom=0;right=0;align=left;spacingLeft=6;fontFamily=Times New Roman;strokeColor=#788AA3;fontColor=#46495D;" vertex="1" parent="z7PGiLr09u5QZkVADLrg-50">
          <mxGeometry x="30" width="220" height="30" as="geometry" />
        </mxCell>
        <mxCell id="z7PGiLr09u5QZkVADLrg-53" value="" style="shape=partialRectangle;collapsible=0;dropTarget=0;pointerEvents=0;fillColor=none;points=[[0,0.5],[1,0.5]];portConstraint=eastwest;top=0;left=0;right=0;bottom=0;fontFamily=Times New Roman;strokeColor=#788AA3;fontColor=#46495D;" vertex="1" parent="z7PGiLr09u5QZkVADLrg-46">
          <mxGeometry y="90" width="250" height="30" as="geometry" />
        </mxCell>
        <mxCell id="z7PGiLr09u5QZkVADLrg-54" value="" style="shape=partialRectangle;overflow=hidden;connectable=0;fillColor=none;top=0;left=0;bottom=0;right=0;fontFamily=Times New Roman;strokeColor=#788AA3;fontColor=#46495D;" vertex="1" parent="z7PGiLr09u5QZkVADLrg-53">
          <mxGeometry width="30" height="30" as="geometry" />
        </mxCell>
        <mxCell id="z7PGiLr09u5QZkVADLrg-55" value="Name varchar(64) NOT NULL" style="shape=partialRectangle;overflow=hidden;connectable=0;fillColor=none;top=0;left=0;bottom=0;right=0;align=left;spacingLeft=6;fontFamily=Times New Roman;strokeColor=#788AA3;fontColor=#46495D;" vertex="1" parent="z7PGiLr09u5QZkVADLrg-53">
          <mxGeometry x="30" width="220" height="30" as="geometry" />
        </mxCell>
        <mxCell id="z7PGiLr09u5QZkVADLrg-56" value="Commit" style="shape=table;startSize=30;container=1;collapsible=1;childLayout=tableLayout;fixedRows=1;rowLines=0;fontStyle=1;align=center;resizeLast=1;fontFamily=Times New Roman;fillColor=#B2C9AB;strokeColor=#788AA3;fontColor=#46495D;" vertex="1" parent="1">
          <mxGeometry x="654" y="810" width="250" height="180" as="geometry" />
        </mxCell>
        <mxCell id="z7PGiLr09u5QZkVADLrg-57" value="" style="shape=partialRectangle;collapsible=0;dropTarget=0;pointerEvents=0;fillColor=none;points=[[0,0.5],[1,0.5]];portConstraint=eastwest;top=0;left=0;right=0;bottom=1;fontFamily=Times New Roman;strokeColor=#788AA3;fontColor=#46495D;" vertex="1" parent="z7PGiLr09u5QZkVADLrg-56">
          <mxGeometry y="30" width="250" height="30" as="geometry" />
        </mxCell>
        <mxCell id="z7PGiLr09u5QZkVADLrg-58" value="PK" style="shape=partialRectangle;overflow=hidden;connectable=0;fillColor=none;top=0;left=0;bottom=0;right=0;fontStyle=1;fontFamily=Times New Roman;strokeColor=#788AA3;fontColor=#46495D;" vertex="1" parent="z7PGiLr09u5QZkVADLrg-57">
          <mxGeometry width="30" height="30" as="geometry" />
        </mxCell>
        <mxCell id="z7PGiLr09u5QZkVADLrg-59" value="IdÂ int NOT NULL " style="shape=partialRectangle;overflow=hidden;connectable=0;fillColor=none;top=0;left=0;bottom=0;right=0;align=left;spacingLeft=6;fontStyle=5;fontFamily=Times New Roman;strokeColor=#788AA3;fontColor=#46495D;" vertex="1" parent="z7PGiLr09u5QZkVADLrg-57">
          <mxGeometry x="30" width="220" height="30" as="geometry" />
        </mxCell>
        <mxCell id="z7PGiLr09u5QZkVADLrg-60" value="" style="shape=partialRectangle;collapsible=0;dropTarget=0;pointerEvents=0;fillColor=none;points=[[0,0.5],[1,0.5]];portConstraint=eastwest;top=0;left=0;right=0;bottom=0;fontFamily=Times New Roman;strokeColor=#788AA3;fontColor=#46495D;" vertex="1" parent="z7PGiLr09u5QZkVADLrg-56">
          <mxGeometry y="60" width="250" height="30" as="geometry" />
        </mxCell>
        <mxCell id="z7PGiLr09u5QZkVADLrg-61" value="" style="shape=partialRectangle;overflow=hidden;connectable=0;fillColor=none;top=0;left=0;bottom=0;right=0;fontFamily=Times New Roman;strokeColor=#788AA3;fontColor=#46495D;" vertex="1" parent="z7PGiLr09u5QZkVADLrg-60">
          <mxGeometry width="30" height="30" as="geometry" />
        </mxCell>
        <mxCell id="z7PGiLr09u5QZkVADLrg-62" value="ChangeSets longtext NOT NULL" style="shape=partialRectangle;overflow=hidden;connectable=0;fillColor=none;top=0;left=0;bottom=0;right=0;align=left;spacingLeft=6;fontFamily=Times New Roman;strokeColor=#788AA3;fontColor=#46495D;" vertex="1" parent="z7PGiLr09u5QZkVADLrg-60">
          <mxGeometry x="30" width="220" height="30" as="geometry" />
        </mxCell>
        <mxCell id="z7PGiLr09u5QZkVADLrg-66" value="AppId varchar(64) NOT NULL" style="shape=partialRectangle;overflow=hidden;connectable=0;fillColor=none;top=0;left=0;bottom=0;right=0;align=left;spacingLeft=6;fontFamily=Times New Roman;strokeColor=#788AA3;fontColor=#46495D;" vertex="1" parent="1">
          <mxGeometry x="374" y="930" width="220" height="30" as="geometry" />
        </mxCell>
        <mxCell id="z7PGiLr09u5QZkVADLrg-67" value="ClusterName varchar(32) NOT NULL" style="shape=partialRectangle;overflow=hidden;connectable=0;fillColor=none;top=0;left=0;bottom=0;right=0;align=left;spacingLeft=6;fontFamily=Times New Roman;strokeColor=#788AA3;fontColor=#46495D;" vertex="1" parent="1">
          <mxGeometry x="374" y="960" width="220" height="30" as="geometry" />
        </mxCell>
        <mxCell id="z7PGiLr09u5QZkVADLrg-68" value="NamespaceName varchar(32) NOT NULL" style="shape=partialRectangle;overflow=hidden;connectable=0;fillColor=none;top=0;left=0;bottom=0;right=0;align=left;spacingLeft=6;fontFamily=Times New Roman;strokeColor=#788AA3;fontColor=#46495D;" vertex="1" parent="1">
          <mxGeometry x="374" y="990" width="220" height="30" as="geometry" />
        </mxCell>
        <mxCell id="z7PGiLr09u5QZkVADLrg-69" value="AppId varchar(64) NOT NULL" style="shape=partialRectangle;overflow=hidden;connectable=0;fillColor=none;top=0;left=0;bottom=0;right=0;align=left;spacingLeft=6;fontFamily=Times New Roman;strokeColor=#788AA3;fontColor=#46495D;" vertex="1" parent="1">
          <mxGeometry x="684" y="900" width="220" height="30" as="geometry" />
        </mxCell>
        <mxCell id="z7PGiLr09u5QZkVADLrg-70" value="ClusterName varchar(32) NOT NULL" style="shape=partialRectangle;overflow=hidden;connectable=0;fillColor=none;top=0;left=0;bottom=0;right=0;align=left;spacingLeft=6;fontFamily=Times New Roman;strokeColor=#788AA3;fontColor=#46495D;" vertex="1" parent="1">
          <mxGeometry x="684" y="930" width="220" height="30" as="geometry" />
        </mxCell>
        <mxCell id="z7PGiLr09u5QZkVADLrg-71" value="NamespaceName varchar(32) NOT NULL" style="shape=partialRectangle;overflow=hidden;connectable=0;fillColor=none;top=0;left=0;bottom=0;right=0;align=left;spacingLeft=6;fontFamily=Times New Roman;strokeColor=#788AA3;fontColor=#46495D;" vertex="1" parent="1">
          <mxGeometry x="684" y="960" width="220" height="30" as="geometry" />
        </mxCell>
        <mxCell id="z7PGiLr09u5QZkVADLrg-72" value="" style="edgeStyle=elbowEdgeStyle;elbow=vertical;endArrow=none;html=1;fontColor=#46495D;strokeColor=#788AA3;fillColor=#B2C9AB;endFill=0;startArrow=ERmany;startFill=0;" edge="1" parent="1" source="z7PGiLr09u5QZkVADLrg-56">
          <mxGeometry width="50" height="50" relative="1" as="geometry">
            <mxPoint x="738.1200000000001" y="768.35" as="sourcePoint" />
            <mxPoint x="448" y="680" as="targetPoint" />
            <Array as="points">
              <mxPoint x="638" y="740" />
              <mxPoint x="598" y="720" />
            </Array>
          </mxGeometry>
        </mxCell>
        <mxCell id="z7PGiLr09u5QZkVADLrg-78" value="" style="edgeStyle=elbowEdgeStyle;elbow=vertical;endArrow=none;html=1;fontColor=#46495D;strokeColor=#788AA3;fillColor=#B2C9AB;endFill=0;startArrow=ERmany;startFill=0;" edge="1" parent="1">
          <mxGeometry width="50" height="50" relative="1" as="geometry">
            <mxPoint x="448" y="810" as="sourcePoint" />
            <mxPoint x="448" y="680" as="targetPoint" />
            <Array as="points">
              <mxPoint x="448" y="800" />
              <mxPoint x="455" y="790" />
              <mxPoint x="448" y="770" />
            </Array>
          </mxGeometry>
        </mxCell>
      </root>
    </mxGraphModel>
  </diagram>
</mxfile>
